name 900061_42ik_rsw.mot
datacolumns 165
datarows 4
range 0.71666667 0.74166667
cursor 1.0 1.0 0.0
keys m_key
wrap
enforce_loops no
enforce_constraints no
calc_derivatives 0.008333
event_color 1.000000 0.000000 1.000000
endheader
                time	          calcn_r_tx	          calcn_r_ty	          calcn_r_tz	          calcn_r_r1	          calcn_r_r2	          calcn_r_r3	          calcn_l_tx	          calcn_l_ty	          calcn_l_tz	          calcn_l_r1	          calcn_l_r2	          calcn_l_r3	           pelvis_tz	           pelvis_tx	           pelvis_ty	         pelvis_tilt	         pelvis_list	     pelvis_rotation	       hip_flexion_r	     hip_adduction_r	      hip_rotation_r	        knee_angle_r	       ankle_angle_r	    subtalar_angle_r	         mtp_angle_r	       hip_flexion_l	     hip_adduction_l	      hip_rotation_l	        knee_angle_l	       ankle_angle_l	    subtalar_angle_l	         mtp_angle_l	    lumbar_extension	      lumbar_bending	     lumbar_rotation	     ground_force_px	     ground_force_py	     ground_force_pz	     ground_force_vx	     ground_force_vy	     ground_force_vz	     ground_force_px	     ground_force_py	     ground_force_pz	     ground_force_vx	     ground_force_vy	     ground_force_vz	     ground_torque_x	     ground_torque_y	     ground_torque_z	     ground_torque_x	     ground_torque_y	     ground_torque_z	           midhip_px	           midhip_py	           midhip_pz	            hip_r_px	            hip_r_py	            hip_r_pz	            hip_l_px	            hip_l_py	            hip_l_pz	           knee_r_px	           knee_r_py	           knee_r_pz	           knee_l_px	           knee_l_py	           knee_l_pz	          ankle_r_px	          ankle_r_py	          ankle_r_pz	          ankle_l_px	          ankle_l_py	          ankle_l_pz	          midasis_px	          midasis_py	          midasis_pz	           asis_r_px	           asis_r_py	           asis_r_pz	           asis_l_px	           asis_l_py	           asis_l_pz	           psis_r_px	           psis_r_py	           psis_r_pz	           psis_l_px	           psis_l_py	           psis_l_pz	     epicondLat_r_px	     epicondLat_r_py	     epicondLat_r_pz	     epicondLat_l_px	     epicondLat_l_py	     epicondLat_l_pz	     epicondMed_r_px	     epicondMed_r_py	     epicondMed_r_pz	     epicondMed_l_px	     epicondMed_l_py	     epicondMed_l_pz	   malleolusLat_r_px	   malleolusLat_r_py	   malleolusLat_r_pz	   malleolusLat_l_px	   malleolusLat_l_py	   malleolusLat_l_pz	  malleolusMedv_r_px	  malleolusMedv_r_py	  malleolusMedv_r_pz	  malleolusMedv_l_px	  malleolusMedv_l_py	  malleolusMedv_l_pz	             neck_px	             neck_py	             neck_pz	    subclavicle_r_px	    subclavicle_r_py	    subclavicle_r_pz	    subclavicle_l_px	    subclavicle_l_py	    subclavicle_l_pz	     sternalnotch_px	     sternalnotch_py	     sternalnotch_pz	   xyphoidprocess_px	   xyphoidprocess_py	   xyphoidprocess_pz	      thighwand_r_px	      thighwand_r_py	      thighwand_r_pz	      thighwand_l_px	      thighwand_l_py	      thighwand_l_pz	      upperleg1_r_px	      upperleg1_r_py	      upperleg1_r_pz	      upperleg1_l_px	      upperleg1_l_py	      upperleg1_l_pz	      upperleg2_r_px	      upperleg2_r_py	      upperleg2_r_pz	      upperleg2_l_px	      upperleg2_l_py	      upperleg2_l_pz	      shankwand_r_px	      shankwand_r_py	      shankwand_r_pz	      shankwand_l_px	      shankwand_l_py	      shankwand_l_pz	      lowerleg1_r_px	      lowerleg1_r_py	      lowerleg1_r_pz	      lowerleg1_l_px	      lowerleg1_l_py	      lowerleg1_l_pz	            toe_r_px	            toe_r_py	            toe_r_pz	            toe_l_px	            toe_l_py	            toe_l_pz
0.71666667	-1.46860081	0.13799562	0.22335489	0.45239209	-10.98059627	-42.8929621	-0.86219802	0.03116289	0.14521202	1.52896273	-10.15958988	15.9964155	0.21444459	-1.01638282	0.87835642	2.20747864	-2.26761385	-7.23521931	-14.33972752	2.28752405	-3.56387485	-26.52612189	-4.70104925	0	0	22.57981804	-1.680816	3.31584983	-13.0290543	3.81882184	0	0	-7.18363941	-1.75228386	17.11164316	-1.31286973	0	0.26134824	64.50774231	188.7455168	3.8450641	-0.84497195	0	0.14047003	-1.008971	12.68089578	-0.20309256	0	0.79891683	0	0	0.04078956	0	-1.06891135	0.81805041	0.20892789	-1.07585584	0.82237156	0.28382775	-1.06196679	0.81372921	0.13402839	-1.17119897	0.45018264	0.27048453	-0.94250768	0.44267561	0.1557632	-1.40765863	0.1453294	0.23751848	-0.82833292	0.0740924	0.1481377	-1.01687515	0.89346697	0.21472168	-1.02869951	0.89603665	0.31311207	-1.00505103	0.89089696	0.1163312	-1.17263565	0.92253428	0.21433964	-1.16830266	0.91800669	0.15978619	-1.16089945	0.44675216	0.32824197	-0.89693687	0.48199046	0.10014522	-1.15286555	0.4473202	0.21734838	-0.92608169	0.44967072	0.19184714	-1.42086007	0.15195404	0.27303075	-0.82414271	0.07523319	0.10988999	-1.38387951	0.14085707	0.21253969	-0.81366351	0.09352947	0.17507199	-1.13171624	1.33584229	0.23772038	-1.02123595	1.26470791	0.26291434	-1.04007933	1.26154903	0.15988631	-1.04554335	1.27378819	0.20849409	-0.98745355	1.10853094	0.20409433	-0.97893184	0.59198778	0.2897057	-0.86798288	0.67114293	0.1911824	-1.05254887	0.65684832	0.32506169	-0.93378782	0.68660645	0.11633946	-1.07722642	0.57480684	0.32386578	-0.89922767	0.60626404	0.12268666	-1.36010686	0.24741206	0.34983389	-0.88399846	0.18531469	0.04352642	-1.34824285	0.24830238	0.31022162	-0.87332973	0.1934909	0.08495758	-1.35037616	0.04960738	0.28095526	-0.70356047	0.08227761	0.14049489
0.725	-1.45285677	0.15002856	0.2231042	0.65516804	-11.61943477	-47.95594356	-0.85481193	0.02954763	0.1462564	1.14349927	-9.76080601	14.04520016	0.21522221	-0.99700059	0.87850932	2.60315959	-2.01086404	-7.29211021	-13.72141342	1.63321148	-4.41122665	-29.61402715	-7.79275597	0	0	21.79126581	-1.3371862	2.72670001	-13.82120974	3.13092447	0	0	-7.30910313	-1.78283676	16.66687832	-1.30607595	0	0.2622467	43.31198992	123.1623495	3.97652618	-0.83209709	0	0.14047866	-2.5375618	78.57878562	0.60935177	0	0.53527406	0	0	0.09373334	0	-1.04939912	0.81808478	0.20804248	-1.05650593	0.82221647	0.28293786	-1.04229231	0.81395288	0.13314731	-1.14559198	0.4479238	0.27393885	-0.92482248	0.4422381	0.15585284	-1.39210607	0.15315187	0.23813514	-0.82005934	0.07170948	0.14815737	-0.99780728	0.89379035	0.21408011	-1.00975518	0.89605357	0.31235222	-0.98585965	0.89152683	0.11580779	-1.15366937	0.92185433	0.21379105	-1.14926473	0.91767706	0.15922684	-1.13644835	0.44551484	0.33165156	-0.88011266	0.4806634	0.10028254	-1.12583987	0.44402712	0.22028207	-0.90847548	0.44928324	0.1912443	-1.40583161	0.16060267	0.27328964	-0.815164	0.07293933	0.1099843	-1.3674674	0.1471855	0.21431161	-0.8054759	0.09041212	0.17538965	-1.1147715	1.3356129	0.23635165	-1.00426634	1.26488885	0.26251213	-1.02217116	1.26181101	0.1593385	-1.02811865	1.27395677	0.20790097	-0.9693553	1.10893115	0.20378856	-0.95547452	0.59244797	0.29295341	-0.84944449	0.67057519	0.18999796	-1.03031021	0.65638978	0.32676129	-0.91497494	0.68594918	0.11477083	-1.05356419	0.5738919	0.32619298	-0.88074344	0.60547082	0.12156276	-1.34336772	0.25446517	0.35074443	-0.87128946	0.18440006	0.04330396	-1.33044892	0.25437183	0.31166628	-0.86170042	0.19180705	0.08496477	-1.34406917	0.05234863	0.28071364	-0.6950592	0.07569909	0.14194922
0.73333333	-1.43495435	0.16243995	0.2235674	0.45244935	-12.54337259	-52.87966888	-0.84933181	0.02833741	0.14712124	0.63426897	-9.59110087	11.70281536	0.21350778	-0.97766048	0.8789075	2.94094548	-1.93950199	-7.47454352	-12.7662546	0.74830987	-5.34404127	-33.03055689	-10.68468755	0	0	21.1161817	-0.99737933	2.27928054	-14.98421973	2.34971406	0	0	-7.42489012	-1.77290646	16.18987339	-1.29621071	0	0.26282004	22.26204718	77.10870794	2.73543843	-0.82253788	0	0.14048336	-3.81797384	189.0833195	2.73397857	0	0.37239689	0	0	0.13346938	0	-1.0301245	0.81783543	0.20723797	-1.03736835	0.82178933	0.28212979	-1.02288075	0.81388113	0.13234619	-1.11865648	0.44508164	0.27751613	-0.90700769	0.44160163	0.1558425	-1.37470404	0.16132383	0.2385918	-0.81350427	0.06937837	0.14824104	-0.97895803	0.89381418	0.21349327	-0.99098312	0.89577862	0.31166168	-0.96693312	0.8918495	0.11532468	-1.13493599	0.92089217	0.21334215	-1.13052454	0.91711378	0.15878103	-1.11060547	0.44388509	0.33516611	-0.86327487	0.4792723	0.10031767	-1.09751162	0.44021625	0.22368117	-0.89073741	0.44870234	0.19086762	-1.38884227	0.16952822	0.27343186	-0.8079795	0.07061838	0.11014302	-1.34929016	0.1537147	0.21586757	-0.79843626	0.0871803	0.17568677	-1.09777554	1.33505615	0.23491436	-0.9872183	1.26469285	0.26208568	-1.00413562	1.26176422	0.15876	-1.0105882	1.2737848	0.20727998	-0.9511566	1.10899308	0.20338375	-0.93137063	0.59308361	0.29647377	-0.83107451	0.66995664	0.18909172	-1.00758714	0.65569638	0.32872395	-0.89631354	0.68510418	0.113542	-1.02909039	0.57270784	0.32884576	-0.86232959	0.6045446	0.1207293	-1.32468183	0.26133982	0.35164545	-0.86000309	0.18344941	0.04332958	-1.31076214	0.26030847	0.31307372	-0.851217	0.19007844	0.08521888	-1.33584807	0.056246	0.28061289	-0.68833691	0.06846001	0.14258808
0.74166667	-1.41569863	0.17396563	0.22339617	0.44823166	-13.22031604	-56.85669236	-0.84566928	0.02707001	0.1478772	0.20645988	-9.20143141	9.33205402	0.21297434	-0.95884582	0.87884427	3.23320627	-1.81192626	-7.28207193	-11.65281585	0.17165285	-6.24285582	-36.5603759	-12.61932951	0	0	20.50585619	-0.61931173	1.98937877	-16.27728366	1.65944627	0	0	-7.58021774	-1.76460801	15.64105574	-1.28577075	0	0.26255191	6.58360822	47.4493745	0.87094489	-0.81668701	0	0.14044333	-5.07537587	291.0453523	5.92304746	0	0.25695696	0	0	0.05563899	0	-1.01115583	0.81727156	0.20650784	-1.01850562	0.82103387	0.28139902	-1.0038062	0.81350867	0.13161654	-1.09060507	0.44176716	0.28107225	-0.88926211	0.44083352	0.15575509	-1.35557963	0.16987288	0.2388115	-0.80828921	0.06733302	0.1484238	-0.96041532	0.89351868	0.2129747	-0.97246648	0.89515909	0.31107462	-0.94836421	0.89187812	0.11487471	-1.1165348	0.91958929	0.21304741	-1.11218189	0.91627021	0.15849932	-1.08349768	0.44191063	0.33864792	-0.84648113	0.47788907	0.10028098	-1.06811753	0.43608332	0.22733739	-0.87307566	0.44797718	0.19065024	-1.36995954	0.17868147	0.27342498	-0.80219413	0.06850073	0.11040257	-1.32961505	0.16056749	0.21702248	-0.79221546	0.08412811	0.17601874	-1.08070447	1.33421391	0.23343765	-0.9700923	1.26411385	0.26167189	-0.98600067	1.26137351	0.15819011	-0.99296183	1.27325804	0.20666916	-0.93294835	1.10867115	0.20296171	-0.90678406	0.59393939	0.30010925	-0.81296792	0.66929497	0.18850718	-0.98453258	0.65480416	0.33086322	-0.87787284	0.68416603	0.11266944	-1.00398853	0.57131335	0.33168852	-0.8440928	0.60355716	0.12018766	-1.30400926	0.26786334	0.35252545	-0.84984741	0.18255184	0.04357076	-1.28925072	0.26603884	0.31436837	-0.84154127	0.1885289	0.08567076	-1.32526173	0.06142524	0.28079714	-0.68297671	0.06119144	0.14253951
